<svg width="90" height="90" viewBox="0 0 90 90" fill="none" xmlns="http://www.w3.org/2000/svg">
<path d="M0 48.3472C0 46.1215 0 43.8959 0 41.6679C0.0586802 41.4472 0.133791 41.2288 0.168999 41.0058C0.488219 38.9586 0.661912 36.8785 1.1337 34.8665C6.8069 10.7434 30.4879 -4.2 54.6594 1.0519C77.3005 5.97277 93.3883 27.9242 89.3886 52.4041C87.7339 62.5252 83.0324 71.0968 75.5049 78.0673C69.083 84.0141 61.5437 87.7799 52.9131 89.3059C51.3357 89.5853 49.742 89.7708 48.1553 90.0009H41.8296C41.5455 89.9422 41.2639 89.8671 40.9775 89.8271C39.5011 89.6252 38.0107 89.5102 36.5507 89.2261C27.7721 87.5123 20.1203 83.5798 13.7077 77.3371C6.50176 70.3221 2.07258 61.8373 0.52108 51.8806C0.337998 50.7043 0.17604 49.5258 0.00234721 48.3472H0ZM71.3011 27.1729C71.2471 27.1072 71.1931 27.0414 71.1415 26.9757H18.8105C18.773 27.0367 18.7354 27.1001 18.6978 27.1612C18.9302 27.3396 19.1861 27.4945 19.3926 27.6988C26.3943 34.6927 33.4571 41.6256 40.3414 48.7322C42.0831 50.5306 43.8012 51.4767 46.2752 51.1293C46.923 51.0377 47.4089 50.8969 47.876 50.4296C55.441 42.8417 63.0201 35.2679 70.6016 27.6941C70.8058 27.4898 71.0687 27.3443 71.3034 27.1706L71.3011 27.1729ZM69.6651 63.0887C64.635 58.0575 59.6355 53.0568 54.6007 48.0232C54.4481 48.1664 54.2322 48.3566 54.028 48.5608C52.4108 50.1737 50.8311 51.8266 49.1575 53.3808C48.7163 53.7916 48.0051 54.0616 47.3948 54.1062C45.9982 54.2119 44.5805 54.0663 43.1815 54.1626C41.9892 54.2424 41.1418 53.8339 40.3367 52.9746C38.7195 51.249 37.0107 49.6103 35.5132 48.1077C30.4409 53.1742 25.432 58.1749 20.5099 63.091H69.6651V63.0887ZM16.5243 62.058C22.0027 56.5807 27.474 51.1081 32.828 45.7529C27.4248 40.3508 21.9581 34.8829 16.5243 29.4479V62.058ZM57.1568 45.6027C62.6164 51.0635 68.0854 56.5314 73.4253 61.8726V29.3352C67.9352 34.8265 62.4732 40.285 57.1568 45.6027Z" fill="#7A879A"/>
<path d="M71.3011 27.1734C71.0664 27.3471 70.8035 27.4927 70.5993 27.6969C63.0178 35.2684 55.4387 42.8422 47.8737 50.4325C47.4066 50.8997 46.9207 51.0429 46.2729 51.1321C43.7989 51.4796 42.0808 50.5311 40.3391 48.7351C33.4548 41.6284 26.392 34.6956 19.3903 27.7016C19.1838 27.4974 18.9279 27.3424 18.6956 27.164C18.7331 27.1029 18.7707 27.0396 18.8082 26.9785H71.1392C71.1932 27.0443 71.2472 27.11 71.2988 27.1757L71.3011 27.1734Z" fill="white"/>
<path d="M69.6649 63.0873H20.5098C25.4319 58.1735 30.4408 53.1705 35.5131 48.1041C37.013 49.6066 38.7217 51.2453 40.3366 52.9709C41.1417 53.8302 41.989 54.2387 43.1814 54.1589C44.5804 54.065 45.9957 54.2082 47.3947 54.1025C48.0049 54.0556 48.7161 53.7856 49.1574 53.3771C50.831 51.8229 52.4106 50.1724 54.0279 48.5572C54.2321 48.3529 54.448 48.1627 54.6006 48.0195C59.6353 53.0531 64.6349 58.0538 69.6649 63.085V63.0873Z" fill="white"/>
<path d="M16.5266 62.057V29.4492C21.9604 34.8842 27.4294 40.3521 32.8303 45.7543C27.4763 51.1095 22.0026 56.5821 16.5266 62.0594V62.057Z" fill="white"/>
<path d="M57.1592 45.6035C62.4756 40.2858 67.9352 34.8273 73.4277 29.3359V61.8733C68.0878 56.5322 62.6188 51.0643 57.1592 45.6035Z" fill="white"/>
</svg>
