<svg width="90" height="91" viewBox="0 0 90 91" fill="none" xmlns="http://www.w3.org/2000/svg">
<path d="M0 47.9977C0 46.0058 0 44.0139 0 42.0219C0.0572225 41.7424 0.121048 41.4651 0.169467 41.1833C0.649256 38.4563 0.902355 35.6654 1.63744 33.011C7.6128 11.4321 28.5012 -2.69622 51.2208 0.435833C61.8267 1.89731 70.8635 6.6097 78.0735 14.5334C87.5659 24.9662 91.3932 37.3184 89.5511 51.2772C88.1557 61.8575 83.3534 70.8091 75.5183 78.0659C69.0764 84.035 61.5032 87.8076 52.8318 89.3087C51.2252 89.586 49.6009 89.7731 47.9855 90.002H42.0101C40.9119 89.8677 39.8093 89.7577 38.7154 89.5926C28.1601 88.0013 19.1872 83.3549 11.9309 75.5193C5.96435 69.0747 2.19206 61.5032 0.693273 52.8312C0.415964 51.2288 0.22889 49.6089 0.00220087 47.9977H0ZM33.3189 42.0439C34.6372 41.4101 35.8741 40.8202 37.1022 40.2215C39.0324 39.2795 39.5584 37.8554 38.6406 35.8921C36.6951 31.7234 35.7113 27.3455 35.6782 22.7454C35.665 20.8899 34.5118 19.7212 32.6565 19.708C29.3464 19.6838 26.0363 19.6838 22.7261 19.708C20.84 19.7212 19.6163 20.945 19.7066 22.8224C19.8166 25.1291 19.9024 27.4534 20.259 29.7292C21.6697 38.7534 25.299 46.8048 31.3337 53.6763C40.8327 64.4878 52.8516 69.9793 67.2299 70.3051C69.0632 70.3469 70.2803 69.1473 70.2935 67.3139C70.3155 64.0035 70.3155 60.6932 70.2935 57.3851C70.2803 55.4812 69.116 54.3367 67.2057 54.3234C62.6367 54.2882 58.2855 53.3066 54.1435 51.3763C52.1319 50.4386 50.7234 50.9625 49.7572 52.9478C49.1586 54.176 48.5665 55.4063 47.9503 56.6763C41.7614 53.0777 36.9459 48.2486 33.3145 42.0417L33.3189 42.0439Z" fill="#9BAEB5"/>
</svg>
