<svg width="98" height="99" viewBox="0 0 98 99" fill="none" xmlns="http://www.w3.org/2000/svg">
<g filter="url(#filter0_d_952_6684)">
<path d="M4 47.9977C4 46.0058 4 44.0139 4 42.0219C4.05722 41.7424 4.12105 41.4651 4.16947 41.1833C4.64926 38.4563 4.90236 35.6654 5.63744 33.011C11.6128 11.4321 32.5012 -2.69622 55.2208 0.435833C65.8267 1.89731 74.8635 6.6097 82.0735 14.5334C91.5659 24.9662 95.3932 37.3184 93.5511 51.2772C92.1557 61.8575 87.3534 70.8091 79.5183 78.0659C73.0764 84.035 65.5032 87.8076 56.8318 89.3087C55.2252 89.586 53.6009 89.7731 51.9855 90.002H46.0101C44.9119 89.8677 43.8093 89.7577 42.7154 89.5926C32.1601 88.0013 23.1872 83.3549 15.9309 75.5193C9.96435 69.0747 6.19206 61.5032 4.69327 52.8312C4.41596 51.2288 4.22889 49.6089 4.0022 47.9977H4ZM37.3189 42.0439C38.6372 41.41 39.8741 40.8202 41.1022 40.2215C43.0324 39.2795 43.5584 37.8554 42.6406 35.8921C40.695 31.7234 39.7113 27.3455 39.6782 22.7454C39.665 20.8899 38.5118 19.7212 36.6565 19.708C33.3464 19.6838 30.0363 19.6838 26.7261 19.708C24.84 19.7212 23.6163 20.945 23.7066 22.8224C23.8166 25.1291 23.9024 27.4534 24.259 29.7292C25.6697 38.7534 29.299 46.8048 35.3337 53.6763C44.8327 64.4878 56.8516 69.9793 71.2299 70.3051C73.0632 70.3469 74.2803 69.1473 74.2935 67.3139C74.3155 64.0035 74.3155 60.6932 74.2935 57.3851C74.2803 55.4812 73.116 54.3367 71.2057 54.3234C66.6367 54.2882 62.2855 53.3066 58.1435 51.3763C56.1319 50.4386 54.7234 50.9625 53.7572 52.9478C53.1586 54.176 52.5665 55.4063 51.9503 56.6763C45.7614 53.0777 40.9459 48.2486 37.3145 42.0417L37.3189 42.0439Z" fill="#9BAEB5"/>
<path d="M37.3189 42.0453C40.9504 48.2522 45.7637 53.0812 51.9547 56.6799C52.5709 55.4099 53.163 54.1795 53.7616 52.9513C54.7278 50.966 56.1363 50.4422 58.1479 51.3798C62.2922 53.3101 66.6411 54.2918 71.2101 54.327C73.1204 54.3424 74.2847 55.4847 74.2979 57.3886C74.3199 60.6989 74.3199 64.0093 74.2979 67.3174C74.2847 69.1509 73.0676 70.3504 71.2343 70.3086C56.856 69.9806 44.8349 64.4891 35.3382 53.6799C29.3034 46.8105 25.6719 38.757 24.2634 29.7328C23.9069 27.4569 23.8232 25.1326 23.711 22.826C23.6207 20.9463 24.8444 19.7247 26.7306 19.7115C30.0407 19.6873 33.3508 19.6873 36.6609 19.7115C38.514 19.7247 39.6695 20.8935 39.6827 22.7489C39.7157 27.3491 40.6995 31.7269 42.645 35.8956C43.5628 37.8611 43.0368 39.2852 41.1066 40.225C39.8763 40.8237 38.6417 41.4136 37.3233 42.0475L37.3189 42.0453Z" fill="white"/>
</g>
<defs>
<filter id="filter0_d_952_6684" x="0" y="0.00195312" width="98" height="98" filterUnits="userSpaceOnUse" color-interpolation-filters="sRGB">
<feFlood flood-opacity="0" result="BackgroundImageFix"/>
<feColorMatrix in="SourceAlpha" type="matrix" values="0 0 0 0 0 0 0 0 0 0 0 0 0 0 0 0 0 0 127 0" result="hardAlpha"/>
<feOffset dy="4"/>
<feGaussianBlur stdDeviation="2"/>
<feComposite in2="hardAlpha" operator="out"/>
<feColorMatrix type="matrix" values="0 0 0 0 0 0 0 0 0 0 0 0 0 0 0 0 0 0 0.25 0"/>
<feBlend mode="normal" in2="BackgroundImageFix" result="effect1_dropShadow_952_6684"/>
<feBlend mode="normal" in="SourceGraphic" in2="effect1_dropShadow_952_6684" result="shape"/>
</filter>
</defs>
</svg>
