<?xml version="1.0" encoding="utf-8"?>
<!-- Generator: Adobe Illustrator 24.0.2, SVG Export Plug-In . SVG Version: 6.00 Build 0)  -->
<svg version="1.1" id="Capa_1" xmlns="http://www.w3.org/2000/svg" xmlns:xlink="http://www.w3.org/1999/xlink" x="0px" y="0px"
	 viewBox="0 0 1200 316" style="enable-background:new 0 0 1200 316;" xml:space="preserve">
<style type="text/css">
	.st0{fill:#4E4E4E;}
	.st1{clip-path:url(#SVGID_2_);fill:#4E4E4E;}
	.st2{clip-path:url(#SVGID_2_);}
	.st3{fill:#FFFFFF;}
</style>
<g>
	<g>
		<g>
			<path class="st0" d="M442.27,100.7c-4.19-3.03-9.14-5.21-14.64-6.39c-7.47-1.68-15.31-2.02-24.13-1.68
				c-2.41,0.1-4.79,0.29-7.21,0.46c-2.4,0.12-4.71,0.33-6.91,0.5c-2.19,0.23-4.11,0.46-5.7,0.63l-1.99,0.32v118.34l1.9,0.33
				c1.38,0.23,2.84,0.34,4.36,0.4c1.47,0.1,2.86,0.1,4.14,0.1c2.91,0,5.76-0.15,8.36-0.49l2.02-0.23v-40.85
				c0.91,0.1,1.81,0.15,2.63,0.17c1.57,0.06,3.37,0.1,5.42,0.1c5.56,0,11.1-0.65,16.41-1.89c5.48-1.28,10.43-3.53,14.75-6.66
				c4.33-3.19,7.89-7.42,10.53-12.69c2.65-5.18,4-11.75,4-19.55c0-7.4-1.27-13.72-3.75-18.7
				C449.96,107.89,446.51,103.77,442.27,100.7z M434.77,131.78c0,4.6-0.69,8.36-2.09,11.16c-1.34,2.78-3.18,4.96-5.37,6.56
				c-2.29,1.6-4.92,2.73-7.82,3.34c-3.06,0.65-6.2,1-9.28,1c-2.38,0-4.16-0.06-5.41-0.16c-0.73-0.05-1.48-0.11-2.35-0.21V111.3
				c5.38-0.38,12.55-0.51,18.21,0.8c2.93,0.67,5.47,1.8,7.53,3.38c2,1.56,3.62,3.68,4.79,6.28
				C434.15,124.41,434.77,127.81,434.77,131.78z"/>
			<path class="st0" d="M523.33,158.81c2.86-2.08,5.43-4.54,7.67-7.3c2.25-2.82,4.14-6.03,5.58-9.63c1.47-3.66,2.22-7.72,2.22-12.15
				c0-7.23-1.4-13.41-4.18-18.22c-2.76-4.79-6.41-8.66-10.84-11.51c-4.35-2.78-9.38-4.73-14.94-5.88
				c-5.42-1.09-10.99-1.62-16.48-1.62c-2.48,0-4.75,0.04-6.81,0.13c-2.02,0.1-4,0.29-5.88,0.46c-1.88,0.12-3.75,0.33-5.7,0.52
				c-1.89,0.21-4.02,0.44-6.33,0.61l-2.09,0.19v118.48l1.94,0.33c1.35,0.23,2.83,0.34,4.42,0.4c3.06,0.11,5.51,0.17,8.44-0.06
				c1.44-0.11,2.75-0.21,3.92-0.34l2.09-0.19V111.17c1.09-0.17,2.09-0.23,3.03-0.29c1.51-0.15,3.12-0.21,4.85-0.21
				c7.06,0,12.69,1.7,16.73,5.06c4,3.32,5.93,8.3,5.93,15.28c0,3.68-0.79,6.81-2.36,9.35c-1.64,2.67-3.75,4.98-6.2,6.87
				c-2.52,1.92-5.3,3.51-8.29,4.71c-3.07,1.2-6.04,2.21-8.76,2.92l-3,0.76v3.11l37.56,54.35l1.01,0.12
				c2.97,0.34,5.92,0.49,8.86,0.49c3.61,0,6.99-0.15,9.93-0.49l3.78-0.42l-33.86-49.15C518.12,162.32,520.74,160.74,523.33,158.81z"
				/>
			<path class="st0" d="M636.03,110.14c-4.19-5.49-9.49-9.84-15.84-12.97c-6.31-3.11-13.9-4.67-22.46-4.67
				c-8.59,0-16.11,1.56-22.46,4.67c-6.33,3.13-11.67,7.52-15.83,12.97c-4.13,5.49-7.24,12.02-9.29,19.46
				c-2.01,7.34-2.99,15.55-2.99,24.28c0,8.74,0.97,16.93,2.99,24.27c2.05,7.48,5.16,14.01,9.29,19.46
				c4.2,5.51,9.51,9.86,15.86,12.95c6.32,3.02,13.85,4.58,22.43,4.58c8.56,0,16.11-1.56,22.46-4.58c6.3-3.09,11.65-7.44,15.84-12.95
				c4.13-5.46,7.23-11.98,9.19-19.46c1.96-7.34,2.92-15.53,2.92-24.27c0-8.73-0.96-16.9-2.92-24.28
				C643.26,122.16,640.15,115.64,636.03,110.14z M597.72,196.55c-4.89,0-9.15-0.93-12.66-2.78c-3.56-1.89-6.49-4.66-8.78-8.2
				c-2.4-3.68-4.23-8.19-5.44-13.45c-1.23-5.3-1.83-11.44-1.83-18.22c0-6.69,0.6-12.82,1.83-18.18c1.21-5.25,3.03-9.77,5.44-13.39
				c2.29-3.53,5.22-6.28,8.78-8.15c3.51-1.87,7.77-2.82,12.66-2.82c4.9,0,9.18,0.95,12.68,2.82c3.5,1.87,6.44,4.62,8.76,8.15
				c2.41,3.62,4.19,8.14,5.42,13.39c1.21,5.36,1.85,11.49,1.85,18.18c0,6.78-0.64,12.92-1.85,18.22c-1.2,5.27-3,9.77-5.42,13.45
				c-2.32,3.55-5.26,6.31-8.76,8.2C606.86,195.61,602.62,196.55,597.72,196.55z"/>
			<path class="st0" d="M730.27,93.92c-3.09-0.24-6.22-0.21-9.09,0c-1.42,0.12-2.85,0.27-4.28,0.48l-1.21,0.21l-24.83,53.4
				l-25.14-53.36l-1.19-0.25c-1.33-0.21-2.86-0.36-4.59-0.48c-3.64-0.24-6.5-0.21-9.6,0c-1.65,0.12-3.19,0.27-4.64,0.48l-3.11,0.48
				l37.4,74.82v43.13l1.89,0.37c1.22,0.23,2.62,0.38,4.12,0.49c1.49,0.1,2.94,0.15,4.4,0.15c1.43,0,2.84-0.06,4.29-0.15
				c1.44-0.11,2.87-0.27,4.29-0.49l1.93-0.31v-43.19l36.91-74.82l-3.07-0.48C733.3,94.19,731.81,94.04,730.27,93.92z"/>
			<path class="st0" d="M810.91,194.53h-47.53v-34.55h36.75l0.39-1.8c0.21-1.16,0.39-2.42,0.51-3.79c0.09-1.34,0.15-2.6,0.15-3.83
				c0-1.2-0.06-2.46-0.15-3.74c-0.12-1.34-0.3-2.58-0.51-3.72l-0.39-1.83h-36.75v-28.18h46.15l0.36-1.81
				c0.23-1.16,0.38-2.46,0.42-3.85c0.09-1.32,0.09-2.54,0.09-3.74c0-2.65-0.16-5.15-0.5-7.35l-0.29-1.96h-66.98v118.86h68.18
				l0.34-1.85c0.26-1.15,0.39-2.42,0.46-3.81c0.05-1.34,0.09-2.6,0.09-3.78c0-2.64-0.16-5.1-0.52-7.31L810.91,194.53z"/>
			<path class="st0" d="M898.69,193.23l-0.97-1.93l-1.98,0.86c-2.99,1.32-6.26,2.33-9.7,3.05c-3.42,0.7-7.35,1.05-11.63,1.05
				c-5.39,0-10.33-0.82-14.65-2.54c-4.28-1.68-7.96-4.22-10.99-7.54c-3.06-3.34-5.47-7.65-7.16-12.8
				c-1.7-5.27-2.57-11.64-2.57-18.87c0-14.14,3.04-25.01,9.09-32.41c6.01-7.31,14.23-10.92,25.14-10.92c2.59,0,4.9,0.07,6.94,0.23
				c1.96,0.13,3.73,0.38,5.37,0.68c1.62,0.27,3.16,0.67,4.54,1.05c1.5,0.42,3,0.91,4.55,1.41l2,0.65l0.79-1.95
				c0.99-2.39,1.83-4.62,2.53-6.75c0.75-2.23,1.26-4.64,1.47-7.29l0.15-1.76l-1.69-0.57c-3.48-1.18-7.49-2.25-11.89-3.11
				c-4.46-0.88-9.84-1.3-16.03-1.3c-8.41,0-16.13,1.45-22.96,4.39c-6.86,2.94-12.75,7.19-17.52,12.61
				c-4.72,5.36-8.4,11.98-10.94,19.61c-2.5,7.56-3.76,16.08-3.76,25.41c0,9.21,1.26,17.63,3.78,25.05
				c2.54,7.44,6.21,13.91,10.96,19.17c4.73,5.25,10.68,9.33,17.59,12.15c6.87,2.81,14.67,4.25,23.2,4.25
				c5.49,0,10.73-0.44,15.5-1.33c4.83-0.86,9.59-2.29,14.16-4.24l1.62-0.7l-0.25-1.77C902.67,202.63,901.11,198,898.69,193.23z"/>
			<path class="st0" d="M983.47,111.27c0.2-1.14,0.37-2.44,0.5-3.85c0.11-1.39,0.15-2.65,0.15-3.89c0-1.22-0.05-2.5-0.15-3.72
				c-0.12-1.28-0.3-2.47-0.5-3.61l-0.37-1.83h-79.38l-0.38,1.83c-0.23,1.14-0.4,2.35-0.52,3.7c-0.14,1.31-0.15,2.55-0.15,3.78
				c0,1.24,0.01,2.54,0.15,3.83c0.11,1.35,0.29,2.61,0.52,3.76l0.38,1.81h29.31v99.89l1.98,0.23c2.61,0.34,5.51,0.49,8.55,0.49
				c2.94,0,5.7-0.15,8.25-0.49l2-0.25v-99.88h29.3L983.47,111.27z"/>
		</g>
		<path class="st0" d="M1028.7,94.65l-1.4-0.25c-1.55-0.21-3.1-0.36-4.79-0.48c-3.51-0.24-6.75-0.21-9.82,0
			c-1.66,0.12-3.18,0.27-4.64,0.48l-1.4,0.25l-38.42,118.06l2.61,0.5c1.21,0.23,2.6,0.38,4.11,0.49c2.86,0.21,5.88,0.21,8.82,0
			c1.45-0.11,2.91-0.27,4.33-0.49l1.45-0.23l27.63-92.91l27.93,92.91l1.4,0.23c1.34,0.23,2.75,0.38,4.26,0.49
			c1.47,0.1,2.93,0.15,4.36,0.15c1.55,0,3.12-0.06,4.78-0.15c1.66-0.11,3.17-0.27,4.52-0.49l2.6-0.44L1028.7,94.65z"/>
	</g>
	<g>
		<defs>
			<rect id="SVGID_1_" x="109.91" y="55.37" width="196.89" height="196.89"/>
		</defs>
		<clipPath id="SVGID_2_">
			<use xlink:href="#SVGID_1_"  style="overflow:visible;"/>
		</clipPath>
		<rect x="109.91" y="55.37" class="st1" width="196.89" height="196.89"/>
		<polygon class="st1" points="281.76,253.1 307.3,253.1 307.3,54.27 282.54,54.27 197.67,149.39 		"/>
		<g class="st2">
			<path class="st3" d="M284.99,51.12v-0.58l-62.57-30.94l-0.19-0.09h-89.9l-27.22,17.57v222.51l35.38,9.37l27.94-9.42v-77.36
				l0.54-0.61l53.18,0.59h0.22l62.72-30.54L284.99,51.12z M197.67,149.39L227.44,116l54.8,34.9l-59.81,29.12L197.67,149.39z
				 M222.44,21.71l60.09,29.71l-55.43,62.15l-37.66-23.99L222.44,21.71z M187.84,88.55l-45.75-29.14l-8.3-38.03h86.72L187.84,88.55z
				 M137.6,147.62l-2.31-72.39l11.41,14.12l12.63,57.83l-13.92,28.63L137.6,147.62z M144.17,178.35l-5.26,10.82l-1.07-33.63
				L144.17,178.35z M133.87,30.62l5.98,27.37l-5.21-3.32L133.87,30.62z M140.42,60.58l5.38,24.67l-10.6-13.13l-0.48-15.18
				L140.42,60.58z M133.24,69.69l-22.83-28.23l22.38,14.26L133.24,69.69z M133.33,72.8l2.13,67.17l-27.29-98.29L133.33,72.8z
				 M149.34,92.6l22.81,28.22l-11.49,23.63L149.34,92.6z M148.44,88.5l-5.8-26.5l44.37,28.25l-13.95,28.71L148.44,88.5z
				 M132.72,53.44l-24.91-15.87l23.93-15.45L132.72,53.44z M135.72,147.9l1.42,44.91L107,254.77V44.47L135.72,147.9z M137.27,196.84
				l2.22,69.9l-32.08-8.5L137.27,196.84z M139.03,193.21l5.9-12.12l21.43,77.17l-25,8.43L139.03,193.21z M146.17,178.53l13.81-28.39
				l6.58,30.11v71.71L146.17,178.53z M161.31,147.41l12.14-24.98l21.75,26.91l-26.89,30.15L161.31,147.41z M174.36,120.57
				l14.25-29.3l37.23,23.71l-29.37,32.95L174.36,120.57z M228.71,114.59l54.4-61.01l0.11,95.73L228.71,114.59z M196.4,150.81
				l23.78,29.43l-49.54-0.55L196.4,150.81z"/>
		</g>
	</g>
</g>
</svg>
