<svg version="1.2" xmlns="http://www.w3.org/2000/svg" viewBox="0 0 300 79" width="300" height="79">
	<title>logo proyecta horizontal-svg</title>
	<defs>
		<clipPath clipPathUnits="userSpaceOnUse" id="cp1">
			<path d="m0.62 9.26h61.38v61.82h-61.38z"/>
		</clipPath>
		<clipPath clipPathUnits="userSpaceOnUse" id="cp2">
			<path d="m0.62 9.26h61.38v61.82h-61.38z"/>
		</clipPath>
		<clipPath clipPathUnits="userSpaceOnUse" id="cp3">
			<path d="m0.62 9.26h61.38v61.82h-61.38z"/>
		</clipPath>
	</defs>
	<style>
		.s0 { fill: #4e4e4e } 
		.s1 { fill: #ffffff } 
	</style>
	<g id="Carpeta 1">
		<g id="Layer">
			<g id="Layer">
				<g id="Layer">
					<path id="Layer" fill-rule="evenodd" class="s0" d="m107.4 27.3c0.8 1.6 1.2 3.6 1.2 5.9q0 3.7-1.3 6.1-1.2 2.5-3.3 4-2 1.5-4.6 2.1c-1.6 0.4-3.3 0.6-5.1 0.6q-0.9 0-1.7 0-0.3 0-0.8-0.1v12.8l-0.6 0.1q-1.2 0.2-2.6 0.2-0.6 0-1.3-0.1-0.7 0-1.4-0.1l-0.6-0.1v-37.1l0.7-0.1q0.7-0.1 1.7-0.2 1.1-0.1 2.2-0.2 1.1-0.1 2.2-0.1c2.8-0.1 5.2 0 7.6 0.5 1.7 0.4 3.2 1 4.5 2 1.4 1 2.4 2.2 3.2 3.8zm-6.1 2.8q-0.5-1.2-1.5-2-0.9-0.7-2.3-1c-1.8-0.4-4-0.4-5.7-0.3v13.3q0.4 0 0.7 0 0.6 0.1 1.7 0.1 1.5 0 2.9-0.3 1.4-0.3 2.5-1.1 1-0.7 1.6-2 0.7-1.4 0.7-3.5 0-1.9-0.6-3.2z"/>
					<path id="Layer" class="s0" d="m129.5 41.7q1.3-0.9 2.4-2.3 1.1-1.3 1.7-3 0.7-1.7 0.7-3.8c0-2.3-0.4-4.2-1.3-5.7q-1.3-2.3-3.4-3.6-2-1.3-4.6-1.9c-1.7-0.3-3.4-0.5-5.2-0.5q-1.1 0-2.1 0.1-0.9 0-1.8 0.1-0.9 0.1-1.8 0.2-0.9 0.1-2 0.2h-0.6v37.2l0.6 0.1q0.6 0.1 1.4 0.1c0.9 0.1 1.7 0.1 2.6 0q0.7 0 1.2-0.1h0.7v-32q0.5-0.1 0.9-0.1 0.7-0.1 1.5-0.1 3.3 0 5.2 1.6c1.3 1.1 1.9 2.6 1.9 4.8q0 1.7-0.7 2.9-0.8 1.3-2 2.2-1.2 0.9-2.6 1.5-1.4 0.6-2.7 0.9l-0.9 0.2v1l11.7 17.1h0.3q1.4 0.2 2.8 0.2c1.1 0 2.1-0.1 3.1-0.2l1.1-0.1-10.5-15.4q1.2-0.7 2.4-1.6z"/>
					<path id="Layer" fill-rule="evenodd" class="s0" d="m167.5 32.6c0.6 2.3 0.9 4.8 0.9 7.6 0 2.7-0.3 5.3-0.9 7.6q-0.9 3.5-2.9 6.1c-1.3 1.8-2.9 3.1-4.9 4.1-2 0.9-4.3 1.4-7 1.4q-4 0-7-1.4-3-1.5-4.9-4.1-2-2.6-2.9-6.1c-0.7-2.3-1-4.9-1-7.6 0-2.8 0.3-5.3 1-7.6q0.9-3.5 2.9-6.1c1.3-1.8 2.9-3.1 4.9-4.1q3-1.5 7-1.5c2.7 0 5 0.5 7 1.5q3 1.5 4.9 4.1 2 2.6 2.9 6.1zm-10.9 20.1q1.7-0.9 2.8-2.6 1.1-1.7 1.7-4.2c0.3-1.6 0.5-3.6 0.5-5.7 0-2.1-0.2-4-0.5-5.7q-0.6-2.5-1.7-4.2-1.1-1.7-2.8-2.6-1.6-0.9-3.9-0.9-2.3 0-4 0.9-1.6 0.9-2.7 2.6-1.1 1.7-1.7 4.2c-0.4 1.7-0.6 3.6-0.6 5.7 0 2.1 0.2 4.1 0.6 5.7q0.6 2.5 1.7 4.2 1.1 1.7 2.7 2.6 1.7 0.9 4 0.9 2.3 0 3.9-0.9z"/>
					<path id="Layer" class="s0" d="m194 21.4c-0.9-0.1-1.9-0.1-2.8 0q-0.7 0-1.4 0.1l-0.3 0.1-7.8 16.7-7.8-16.7-0.4-0.1q-0.6-0.1-1.4-0.1c-1.1-0.1-2-0.1-3 0q-0.8 0-1.5 0.1l-0.9 0.2 11.6 23.5v13.5l0.6 0.1q0.6 0.1 1.3 0.2 0.7 0 1.4 0 0.6 0 1.3 0 0.7-0.1 1.4-0.2l0.6-0.1v-13.5l11.5-23.5-1-0.2q-0.7-0.1-1.4-0.1z"/>
					<path id="Layer" class="s0" d="m219.2 53h-14.9v-10.9h11.5l0.1-0.6q0.1-0.5 0.2-1.1 0-0.7 0-1.3 0-0.5 0-1.1-0.1-0.7-0.2-1.2l-0.1-0.6h-11.5v-8.8h14.4l0.1-0.6q0.1-0.5 0.2-1.2 0-0.6 0-1.2 0-1.2-0.2-2.3l-0.1-0.6h-20.8v37.3h21.2l0.1-0.6q0.1-0.5 0.2-1.1 0-0.7 0-1.2 0-1.3-0.2-2.3z"/>
					<path id="Layer" class="s0" d="m246.5 52.5l-0.3-0.6-0.6 0.3q-1.4 0.6-3 1-1.6 0.3-3.6 0.3-2.6 0-4.6-0.8-2-0.8-3.4-2.4-1.5-1.6-2.3-4c-0.5-1.6-0.8-3.6-0.8-5.9 0-4.5 1-7.9 2.9-10.2 1.8-2.3 4.4-3.4 7.8-3.4q1.2 0 2.2 0.1 0.9 0 1.6 0.2 0.8 0.1 1.4 0.3 0.7 0.2 1.5 0.4l0.6 0.2 0.2-0.6q0.5-1.1 0.8-2.1 0.4-1 0.5-2.3v-0.5l-0.5-0.2q-1.6-0.6-3.7-1-2.1-0.4-5-0.4c-2.6 0-5 0.5-7.2 1.4-2.1 0.9-3.9 2.2-5.4 3.9-1.5 1.7-2.6 3.8-3.4 6.2q-1.2 3.6-1.2 8c0 2.9 0.4 5.5 1.2 7.8 0.8 2.4 1.9 4.4 3.4 6.1 1.5 1.6 3.3 2.9 5.5 3.8 2.1 0.9 4.5 1.3 7.2 1.3 1.7 0 3.4-0.1 4.8-0.4q2.3-0.4 4.5-1.3l0.5-0.3-0.1-0.5q-0.3-2.1-1.5-4.4z"/>
					<path id="Layer" class="s0" d="m273 26.8q0-0.5 0.1-1.2 0.1-0.6 0.1-1.2 0-0.6-0.1-1.2-0.1-0.6-0.1-1.1l-0.2-0.6h-24.7l-0.1 0.6q-0.1 0.5-0.2 1.1 0 0.7 0 1.2 0 0.6 0 1.2 0.1 0.7 0.2 1.2l0.1 0.6h9.1v31.3l0.6 0.1q1.3 0.2 2.7 0.2 1.4 0 2.6-0.2l0.6-0.1v-31.3h9.1z"/>
				</g>
				<path id="Layer" class="s0" d="m287.1 21.6l-0.5-0.1q-0.7-0.1-1.5-0.1-1.6-0.1-3 0-0.8 0-1.5 0.1l-0.4 0.1-12 37.1 0.8 0.1q0.6 0.1 1.3 0.2c0.9 0 1.8 0 2.7 0q0.7-0.1 1.4-0.2l0.4-0.1 8.7-29.1 8.7 29.1 0.4 0.1q0.6 0.1 1.3 0.2 0.7 0 1.4 0 0.7 0 1.5 0 0.8-0.1 1.4-0.2l0.8-0.1z"/>
			</g>
			<g id="Layer">
				<g id="Clip-Path" clip-path="url(#cp1)">
					<path id="Layer" class="s0" d="m0.6 9.3h61.4v61.8h-61.4z"/>
				</g>
				<g id="Clip-Path" clip-path="url(#cp2)">
					<path id="Layer" class="s0" d="m54.2 71.3h8v-62.4h-7.8l-26.4 29.9z"/>
				</g>
				<g id="Clip-Path" clip-path="url(#cp3)">
					<g id="Layer">
						<path id="Layer" fill-rule="evenodd" class="s1" d="m55.2 39.5l-19.5 9.6h-0.1l-16.6-0.2-0.1 0.2v24.3l-8.8 2.9-11-2.9v-69.9l8.5-5.5h28 0.1l19.5 9.7v0.2zm-19.5 8.9l18.6-9.1-17.1-11-9.3 10.5zm-10.2-28.4l11.7 7.6 17.3-19.6-18.8-9.3zm9.7-21.4h-27l2.6 11.9 14.2 9.2zm-23.4 48.5l4.4-9-4-18.2-3.5-4.4 0.7 22.7zm-2.4-6.3l0.4 10.5 1.6-3.4zm-1-31.6l1.6 1-1.8-8.6zm0 0.7l0.2 4.8 3.3 4.1-1.7-7.7zm-0.6-0.4l-7-4.5 7.1 8.9zm-7.7-4.4l8.6 30.8-0.7-21.1zm16.3 32.3l3.6-7.4-7.1-8.9zm3.9-8l4.3-9-13.8-8.9 1.8 8.3zm-12.9-30.4l-7.4 4.9 7.7 5zm-7.7 7v66l9.4-19.4-0.4-14.1zm0.1 67.1l10 2.7-0.7-22zm10.6 2.7l7.8-2.7-6.7-24.2-1.8 3.8zm7.8-4.6v-22.5l-2-9.5-4.3 8.9zm0.5-22.7l8.4-9.5-6.8-8.5-3.8 7.9zm8.8-9.9l9.2-10.4-11.6-7.4-4.5 9.2zm27.1 0.4l-0.1-30-16.9 19.1zm-35.1 9.6l15.4 0.1-7.4-9.2z"/>
					</g>
				</g>
			</g>
		</g>
	</g>
</svg>