<svg width="124" height="124" viewBox="0 0 124 124" fill="none" xmlns="http://www.w3.org/2000/svg">
<path d="M66.3597 0.505253L66.3238 0.5H66.2875H66.2851H66.2678H66.2506H66.2334H66.2162H66.199H66.1817H66.1645H66.1473H66.1301H66.1129H66.0956H66.0784H66.0612H66.044H66.0267H66.0095H65.9923H65.9751H65.9579H65.9406H65.9234H65.9062H65.889H65.8718H65.8545H65.8373H65.8201H65.8029H65.7857H65.7684H65.7512H65.734H65.7168H65.6995H65.6823H65.6651H65.6479H65.6307H65.6134H65.5962H65.579H65.5618H65.5446H65.5273H65.5101H65.4929H65.4757H65.4585H65.4412H65.424H65.4068H65.3896H65.3723H65.3551H65.3379H65.3207H65.3035H65.2862H65.269H65.2518H65.2346H65.2174H65.2001H65.1829H65.1657H65.1485H65.1312H65.114H65.0968H65.0796H65.0624H65.0451H65.0279H65.0107H64.9935H64.9763H64.959H64.9418H64.9246H64.9074H64.8902H64.8729H64.8557H64.8385H64.8213H64.804H64.7868H64.7696H64.7524H64.7352H64.7179H64.7007H64.6835H64.6663H64.6491H64.6318H64.6146H64.5974H64.5802H64.563H64.5457H64.5285H64.5113H64.4941H64.4768H64.4596H64.4424H64.4252H64.408H64.3907H64.3735H64.3563H64.3391H64.3219H64.3046H64.2874H64.2702H64.253H64.2358H64.2185H64.2013H64.1841H64.1669H64.1496H64.1324H64.1152H64.098H64.0808H64.0635H64.0463H64.0291H64.0119H63.9947H63.9774H63.9602H63.943H63.9258H63.9086H63.8913H63.8741H63.8569H63.8397H63.8224H63.8052H63.788H63.7708H63.7536H63.7363H63.7191H63.7019H63.6847H63.6675H63.6502H63.633H63.6158H63.5986H63.5813H63.5641H63.5469H63.5297H63.5125H63.4952H63.478H63.4608H63.4436H63.4264H63.4091H63.3919H63.3747H63.3575H63.3403H63.323H63.3058H63.2886H63.2714H63.2541H63.2369H63.2197H63.2025H63.1853H63.168H63.1508H63.1336H63.1164H63.0992H63.0819H63.0647H63.0475H63.0303H63.0131H62.9958H62.9786H62.9614H62.9442H62.9269H62.9097H62.8925H62.8753H62.8581H62.8408H62.8236H62.8064H62.7892H62.772H62.7547H62.7375H62.7203H62.7031H62.6858H62.6686H62.6514H62.6342H62.617H62.5997H62.5825H62.5653H62.5481H62.5309H62.5136H62.4964H62.4792H62.462H62.4448H62.4275H62.4103H62.3931H62.3759H62.3587H62.3414H62.3242H62.307H62.2898H62.2725H62.2553H62.2381H62.2209H62.2037H62.1864H62.1692H62.152H62.1348H62.1176H62.1003H62.0831H62.0659H62.0487H62.0314H62.0142H61.997H61.9798H61.9626H61.9453H61.9281H61.9109H61.8937H61.8765H61.8592H61.842H61.8248H61.8076H61.7904H61.7731H61.7559H61.7387H61.7215H61.7042H61.687H61.6698H61.6526H61.6354H61.6181H61.6009H61.5837H61.5665H61.5493H61.532H61.5148H61.4976H61.4804H61.4632H61.4459H61.4287H61.4115H61.3943H61.377H61.3598H61.3426H61.3254H61.3082H61.2909H61.2737H61.2565H61.2393H61.2221H61.2048H61.1876H61.1704H61.1532H61.1359H61.1187H61.1015H61.0843H61.0671H61.0498H61.0326H61.0154H60.9982H60.981H60.9637H60.9465H60.9293H60.9121H60.8949H60.8776H60.8604H60.8432H60.826H60.8088H60.7915H60.7743H60.7571H60.7399H60.7226H60.7054H60.6882H60.671H60.6538H60.6365H60.6193H60.6021H60.5849H60.5677H60.5504H60.5332H60.516H60.4988H60.4815H60.4643H60.4471H60.4299H60.4127H60.3954H60.3782H60.361H60.3438H60.3266H60.3093H60.2921H60.2749H60.2577H60.2405H60.2232H60.206H60.1888H60.1716H60.1543H60.1371H60.1199H60.1027H60.0855H60.0682H60.051H60.0338H60.0166H59.9994H59.9821H59.9649H59.9477H59.9305H59.9132H59.896H59.8788H59.8616H59.8444H59.8271H59.8099H59.7927H59.7755H59.7583H59.741H59.7238H59.7066H59.6894H59.6722H59.6549H59.6377H59.6205H59.6033H59.586H59.5688H59.5516H59.5344H59.5172H59.4999H59.4827H59.4655H59.4483H59.4311H59.4138H59.3966H59.3794H59.3622H59.345H59.3277H59.3105H59.2933H59.2761H59.2589H59.2416H59.2244H59.2072H59.19H59.1727H59.1555H59.1383H59.1211H59.1039H59.0866H59.0694H59.0522H59.035H59.0178H59.0005H58.9833H58.9661H58.9489H58.9316H58.9144H58.8972H58.88H58.8628H58.8455H58.8283H58.8111H58.7939H58.7767H58.7594H58.7422H58.725H58.7078H58.6906H58.6733H58.6561H58.6389H58.6217H58.6044H58.5872H58.57H58.5528H58.5356H58.5183H58.5011H58.4839H58.4667H58.4495H58.4322H58.415H58.3978H58.3806H58.3633H58.3461H58.3289H58.3117H58.2945H58.2772H58.26H58.2428H58.2256H58.2084H58.1911H58.1739H58.1567H58.1395H58.1223H58.105H58.0878H58.0706H58.0534H58.0361H58.0189H58.0017H57.9845H57.9673H57.95H57.9328H57.9156H57.8984H57.8812H57.8639H57.8467H57.8295H57.8123H57.7951H57.7778H57.7606H57.7434H57.7262H57.709H57.6917H57.6745H57.6573H57.6401H57.6228H57.6056H57.5884H57.5712H57.554H57.5367H57.5195H57.5023H57.4851H57.4679H57.431L57.3945 0.505417C56.8604 0.584684 56.3238 0.662343 55.7859 0.740179C54.7278 0.893323 53.6649 1.04715 52.6071 1.21523C40.5754 3.12094 29.9837 8.12349 20.9175 16.2455C10.6194 25.4621 4.28079 36.9619 1.57938 50.4675C1.31305 51.7958 1.15082 53.1617 0.991334 54.5044C0.911534 55.1763 0.832422 55.8424 0.741302 56.495C0.707424 56.7319 0.657352 56.9513 0.602533 57.1915C0.572586 57.3227 0.541223 57.4602 0.510309 57.61L0.5 57.66V57.711V57.7282V57.7455V57.7627V57.7799V57.7971V57.8143V57.8316V57.8488V57.866V57.8832V57.9004V57.9177V57.9349V57.9521V57.9693V57.9865V58.0038V58.021V58.0382V58.0554V58.0726V58.0899V58.1071V58.1243V58.1415V58.1587V58.176V58.1932V58.2104V58.2276V58.2448V58.2621V58.2793V58.2965V58.3137V58.3309V58.3482V58.3654V58.3826V58.3998V58.417V58.4342V58.4515V58.4687V58.4859V58.5031V58.5203V58.5376V58.5548V58.572V58.5892V58.6064V58.6237V58.6409V58.6581V58.6753V58.6925V58.7098V58.727V58.7442V58.7614V58.7786V58.7959V58.8131V58.8303V58.8475V58.8647V58.882V58.8992V58.9164V58.9336V58.9508V58.9681V58.9853V59.0025V59.0197V59.0369V59.0542V59.0714V59.0886V59.1058V59.123V59.1403V59.1575V59.1747V59.1919V59.2091V59.2264V59.2436V59.2608V59.278V59.2952V59.3125V59.3297V59.3469V59.3641V59.3813V59.3985V59.4158V59.433V59.4502V59.4674V59.4846V59.5019V59.5191V59.5363V59.5535V59.5707V59.588V59.6052V59.6224V59.6396V59.6568V59.6741V59.6913V59.7085V59.7257V59.7429V59.7602V59.7774V59.7946V59.8118V59.829V59.8463V59.8635V59.8807V59.8979V59.9151V59.9324V59.9496V59.9668V59.984V60.0012V60.0185V60.0357V60.0529V60.0701V60.0873V60.1045V60.1218V60.139V60.1562V60.1734V60.1906V60.2079V60.2251V60.2423V60.2595V60.2767V60.294V60.3112V60.3284V60.3456V60.3628V60.3801V60.3973V60.4145V60.4317V60.4489V60.4662V60.4834V60.5006V60.5178V60.535V60.5523V60.5695V60.5867V60.6039V60.6211V60.6384V60.6556V60.6728V60.69V60.7072V60.7245V60.7417V60.7589V60.7761V60.7933V60.8106V60.8278V60.845V60.8622V60.8794V60.8966V60.9139V60.9311V60.9483V60.9655V60.9827V61V61.0172V61.0344V61.0516V61.0688V61.0861V61.1033V61.1205V61.1377V61.1549V61.1722V61.1894V61.2066V61.2238V61.241V61.2583V61.2755V61.2927V61.3099V61.3271V61.3444V61.3616V61.3788V61.396V61.4132V61.4305V61.4477V61.4649V61.4821V61.4993V61.5166V61.5338V61.551V61.5682V61.5854V61.6026V61.6199V61.6371V61.6543V61.6715V61.6887V61.706V61.7232V61.7404V61.7576V61.7748V61.7921V61.8093V61.8265V61.8437V61.8609V61.8782V61.8954V61.9126V61.9298V61.947V61.9643V61.9815V61.9987V62.0159V62.0331V62.0504V62.0676V62.0848V62.102V62.1192V62.1365V62.1537V62.1709V62.1881V62.2053V62.2226V62.2398V62.257V62.2742V62.2914V62.3087V62.3259V62.3431V62.3603V62.3775V62.3947V62.412V62.4292V62.4464V62.4636V62.4808V62.4981V62.5153V62.5325V62.5497V62.5669V62.5842V62.6014V62.6186V62.6358V62.653V62.6703V62.6875V62.7047V62.7219V62.7391V62.7564V62.7736V62.7908V62.808V62.8252V62.8425V62.8597V62.8769V62.8941V62.9113V62.9286V62.9458V62.963V62.9802V62.9974V63.0147V63.0319V63.0491V63.0663V63.0835V63.1007V63.118V63.1352V63.1524V63.1696V63.1868V63.2041V63.2213V63.2385V63.2557V63.2729V63.2902V63.3074V63.3246V63.3418V63.359V63.3763V63.3935V63.4107V63.4279V63.4451V63.4624V63.4796V63.4968V63.514V63.5312V63.5485V63.5657V63.5829V63.6001V63.6173V63.6346V63.6518V63.669V63.6862V63.7034V63.7207V63.7379V63.7551V63.7723V63.7895V63.8068V63.824V63.8412V63.8584V63.8756V63.8929V63.9101V63.9273V63.9445V63.9617V63.979V63.9962V64.0134V64.0306V64.0478V64.065V64.0823V64.0995V64.1167V64.1339V64.1511V64.1684V64.1856V64.2028V64.22V64.2372V64.2545V64.2717V64.2889V64.3061V64.3233V64.3406V64.3578V64.375V64.3922V64.4094V64.4267V64.4439V64.4611V64.4783V64.4955V64.5128V64.53V64.5472V64.5644V64.5816V64.5989V64.6161V64.6333V64.6505V64.6677V64.685V64.7022V64.7194V64.7366V64.7538V64.771V64.7883V64.8055V64.8227V64.8399V64.8571V64.8744V64.8916V64.9088V64.926V64.9432V64.9605V64.9777V64.9949V65.0121V65.0293V65.0466V65.0638V65.081V65.0982V65.1154V65.1327V65.1499V65.1671V65.1843V65.2015V65.2188V65.236V65.2532V65.2704V65.2876V65.3049V65.3221V65.3393V65.3565V65.3737V65.391V65.4082V65.4254V65.4426V65.4598V65.4771V65.4943V65.5115V65.5287V65.5459V65.5631V65.5804V65.5976V65.6148V65.632V65.6492V65.6665V65.6837V65.7009V65.7181V65.7353V65.7526V65.7698V65.787V65.8042V65.8214V65.8387V65.8559V65.8731V65.8903V65.9075V65.9248V65.942V65.9592V65.9764V65.9936V66.0109V66.0281V66.0453V66.0625V66.0797V66.097V66.1142V66.1314V66.1486V66.1658V66.1831V66.2003V66.2175V66.2347V66.2519V66.2691V66.2864V66.3036V66.3208V66.338V66.3552V66.3725V66.3897V66.4069V66.4241V66.4413V66.4586V66.4758V66.493V66.5102V66.5274V66.6021L0.521828 66.6736C0.55433 66.7799 0.584777 66.8711 0.612518 66.9542C0.665904 67.1141 0.709263 67.244 0.737975 67.3942C0.973838 68.6443 1.17765 69.9188 1.38277 71.2015C1.82386 73.9597 2.27097 76.7557 3.0558 79.4285C11.8756 109.489 41.8572 128.049 72.693 122.532C89.1559 119.587 102.341 111.185 112.118 97.6405L111.713 97.3479L112.118 97.6405C118.721 88.4932 122.356 78.1946 123.292 66.9461L122.838 66.9083L123.292 66.9461C123.94 59.1525 123.063 51.5464 120.85 44.0758L120.849 44.0755C120.471 42.8 119.748 41.7077 118.307 41.295C115.588 40.5152 113.121 42.9242 113.911 45.6806L113.911 45.6807C115.144 49.9783 116.063 54.3144 116.292 58.749L116.791 58.7233L116.292 58.7491C116.898 70.4777 114.139 81.3512 107.822 91.2685L108.244 91.5371L107.822 91.2685C95.7639 110.202 73.697 119.473 52.1077 115.499C41.5197 113.549 32.1956 108.923 24.5118 101.384C10.6497 87.7832 5.31629 71.2602 8.52918 52.1527L8.52919 52.1526C10.4869 40.4947 16.0362 30.5557 24.6802 22.4545L24.3654 22.1186L24.6802 22.4545C34.6852 13.0774 46.6125 8.18456 60.3299 7.67568C66.3861 7.45114 72.3051 8.31588 78.1181 10.0497L78.1184 10.0497C80.2108 10.6726 82.1577 9.67473 82.7193 7.71483L82.7193 7.71473C82.9982 6.7409 82.8933 5.76523 82.4336 4.95278C81.9735 4.13975 81.1775 3.52404 80.1362 3.23286L80.1355 3.23267C77.7662 2.57394 75.3707 1.97377 72.9506 1.49316L72.9504 1.49312C71.4289 1.19153 69.878 0.984037 68.3458 0.779054C67.6789 0.689829 67.0156 0.60108 66.3597 0.505253ZM82.2386 7.57709C81.7611 9.24345 80.1137 10.122 78.261 9.57052L52.6856 1.70904C53.7401 1.54146 54.7968 1.38855 55.8527 1.23573C56.3914 1.15777 56.9299 1.07984 57.4679 1H66.2851H66.2875C66.9563 1.09773 67.6269 1.18744 68.2976 1.27716C69.8224 1.48112 71.3476 1.68514 72.8532 1.98358C75.2575 2.46105 77.6402 3.05788 80.0015 3.71439C81.8543 4.23245 82.7281 5.86777 82.2386 7.57709Z" fill="#737373" stroke="#737373"/>
<path d="M105.301 62.1263L105.317 61.6105H105.276C105.272 61.5041 105.267 61.3941 105.263 61.281C105.232 60.5104 105.196 59.5966 105.103 58.6976C104.959 57.3006 104.213 56.1929 102.865 55.6348L102.864 55.6346C100.373 54.6072 97.7492 56.4958 97.9999 59.2833C98.2937 62.5503 98.0823 65.7738 97.4187 68.9555L97.4186 68.9556C93.3658 88.3963 74.9457 100.665 55.3096 97.042C35.2682 93.3424 22.3024 72.858 27.3346 53.0135L26.85 52.8906L27.3346 53.0135C31.5765 36.2831 47.4267 24.7148 64.3132 25.9993L64.3135 25.9993C64.8441 26.0394 65.4451 26.0357 66.0077 25.8861L66.0084 25.8859C67.7094 25.431 68.6236 23.9255 68.4467 22.1727L68.4467 22.1727C68.2639 20.3649 66.7201 19.0095 64.8269 18.8621L64.8269 18.8621C61.1545 18.5764 57.5307 18.848 53.9264 19.5379C29.7906 24.1496 14.3593 48.5248 20.4252 72.349L20.9093 72.2257L20.4252 72.349C25.7777 93.3682 46.1896 107.468 67.9748 104.453C76.9937 103.205 84.8711 99.5352 91.498 93.3268L91.1561 92.9619L91.498 93.3268C100.401 84.9853 104.905 74.6133 105.301 62.1263ZM104.801 62.1105L104.799 62.1104L104.801 62.1105Z" fill="#737373" stroke="#737373"/>
<path d="M105.306 18.6972V18.6948V18.6919V18.6889V18.686V18.683V18.6801V18.6771V18.6742V18.6713V18.6683V18.6654V18.6625V18.6595V18.6566V18.6537V18.6508V18.6478V18.6449V18.642V18.6391V18.6362V18.6333V18.6304V18.6275V18.6246V18.6217V18.6188V18.6159V18.613V18.6101V18.6073V18.6044V18.6015V18.5986V18.5957V18.5929V18.59V18.5871V18.5843V18.5814V18.5785V18.5757V18.5728V18.57V18.5671V18.5643V18.5614V18.5586V18.5557V18.5529V18.5501V18.5472V18.5444V18.5416V18.5387V18.5359V18.5331V18.5303V18.5274V18.5246V18.5218V18.519V18.5162V18.5134V18.5106V18.5078V18.5049V18.5021V18.4993V18.4966V18.4938V18.491V18.4882V18.4854V18.4826V18.4798V18.477V18.4742V18.4715V18.4687V18.4659V18.4631V18.4604V18.4576V18.4548V18.4521V18.4493V18.4465V18.4438V18.441V18.4383V18.4355V18.4328V18.43V18.4273V18.4245V18.4218V18.419V18.4163V18.4135V18.4108V18.4081V18.4053V18.4026V18.3999V18.3972V18.3944V18.3917V18.389V18.3863V18.3835V18.3808V18.3781V18.3754V18.3727V18.37V18.3673V18.3646V18.3619V18.3591V18.3564V18.3537V18.351V18.3484V18.3457V18.343V18.3403V18.3376V18.3349V18.3322V18.3295V18.3268V18.3242V18.3215V18.3188V18.3161V18.3134V18.3108V18.3081V18.3054V18.3028V18.3001V18.2974V18.2948V18.2921V18.2894V18.2868V18.2841V18.2815V18.2788V18.2761V18.2735V18.2708V18.2682V18.2655V18.2629V18.2603V18.2576V18.255V18.2523V18.2497V18.247V18.2444V18.2418V18.2391V18.2365V18.2339V18.2312V18.2286V18.226V18.2234V18.2207V18.2181V18.2155V18.2129V18.2103V18.2076V18.205V18.2024V18.1998V18.1972V18.1946V18.192V18.1893V18.1867V18.1841V18.1815V18.1789V18.1763V18.1737V18.1711V18.1685V18.1659V18.1633V18.1607V18.1581V18.1555V18.1529V18.1503V18.1478V18.1452V18.1426V18.14V18.1374V18.1348V18.1322V18.1297V18.1271V18.1245V18.1219V18.1193V18.1168V18.1142V18.1116V18.109V18.1065V18.1039V18.1013V18.0987V18.0962V18.0936V18.091V18.0885V18.0859V18.0833V18.0808V18.0782V18.0756V18.0731V18.0705V18.068V18.0654V18.0629V18.0603V18.0577V18.0552V18.0526V18.0501V18.0475V18.045V18.0424V18.0399V18.0373V18.0348V18.0322V18.0297V18.0271V18.0246V18.022V18.0195V18.017V18.0144V18.0119V18.0093V18.0068V18.0043V18.0017V17.9992V17.9966V17.9941V17.9916V17.989V17.9865V17.984V17.9814V17.9789V17.9764V17.9738V17.9713V17.9688V17.9663V17.9637V17.9612V17.9587V17.9561V17.9536V17.9511V17.9486V17.946V17.9435V17.941V17.9385V17.9359V17.9334V17.9309V17.9284V17.9259V17.9233V17.9208V17.9183V17.9158V17.9133V17.9107V17.9082V17.9057V17.9032V17.9007V17.8982V17.8957V17.8931V17.8906V17.8881V17.8856V17.8831V17.8806V17.8781V17.8755V17.873V17.8705V17.868V17.8655V17.863V17.8605V17.858V17.8555V17.853V17.8504V17.8479V17.8454V17.8429V17.8404V17.8379V17.8354V17.8329V17.8304V17.8279V17.8254V17.8229V17.8204V17.8178V17.8153V17.8128V17.8103V17.8078V17.8053V17.8028V17.8003V17.7978V17.7953V17.7928V17.7903V17.7878V17.7853V17.7828V17.7803V17.7778V17.7753V17.7728V17.7703V17.7678V17.7652V17.7627V17.7602V17.7577C105.306 17.1127 105.306 16.4672 105.307 15.8214C105.309 14.044 105.311 12.2646 105.299 10.4873C105.299 10.4873 105.299 10.4873 105.299 10.4873L104.799 10.4907C104.789 9.0774 104.288 7.90045 102.9 7.33465L105.306 18.6972ZM105.306 18.6972C105.9 18.6969 106.486 18.6961 107.066 18.6953C109.131 18.6926 111.119 18.6899 113.105 18.7093C113.105 18.7093 113.105 18.7093 113.105 18.7093L105.306 18.6972ZM95.2442 44.0692C96.2362 44.0301 97.492 43.6329 98.2368 42.9023C104.308 36.953 110.313 30.935 116.292 24.8967L115.936 24.5449L116.292 24.8967C118.186 22.9834 117.615 19.8633 115.142 18.9866L85.8091 44.1005C85.8089 44.1005 85.8088 44.1005 85.8087 44.1005M95.2442 44.0692L95.2248 43.5765L95.2443 44.0692C95.2443 44.0692 95.2442 44.0692 95.2442 44.0692ZM95.2442 44.0692C92.296 44.186 89.3427 44.1471 86.4064 44.1084C86.2071 44.1057 86.0079 44.1031 85.8087 44.1005M85.8087 44.1005C85.4743 44.0965 85.215 44.1456 84.9897 44.2408C84.7633 44.3365 84.5443 44.4901 84.3056 44.7309L84.305 44.7314C77.9495 51.1222 71.5853 57.5073 65.1659 63.8378M85.8087 44.1005L65.1659 63.8378M65.1659 63.8378C64.4349 64.5607 63.371 65.0856 62.3884 65.2961M65.1659 63.8378L62.3884 65.2961M79.2336 39.739L79.234 39.7386C79.49 39.4847 79.6522 39.2503 79.7523 39.0073C79.8522 38.7647 79.9018 38.486 79.8955 38.128L79.8955 38.1271C79.8686 36.4071 79.872 34.672 79.8754 32.9417C79.878 31.6056 79.8806 30.2725 79.8692 28.9514L79.8692 28.9511C79.8586 27.5951 80.3058 26.4718 81.2773 25.5058L79.2336 39.739ZM79.2336 39.739C74.0931 44.8479 68.97 49.9743 63.8469 55.1006C62.6827 56.2656 61.5186 57.4305 60.3542 58.5952C60.3132 58.6361 60.2713 58.6778 60.2287 58.7201C59.9355 59.0111 59.6095 59.3347 59.3394 59.6987M79.2336 39.739L62.3884 65.2961M62.3884 65.2961C60.8411 65.6281 59.6711 64.6851 59.0295 63.4758C58.3483 62.1938 58.4717 60.8649 59.3394 59.6987M59.3394 59.6987C59.3395 59.6985 59.3396 59.6984 59.3397 59.6983L59.7399 59.9961L59.3393 59.6988C59.3393 59.6987 59.3394 59.6987 59.3394 59.6987ZM97.0927 19.8097C97.4514 19.4508 97.8118 19.0901 98.1741 18.7274C98.1741 18.8305 98.174 18.9325 98.1739 19.0334C98.1734 19.9197 98.173 20.7218 98.1745 21.5235C98.177 22.9522 98.4332 24.0721 99.1732 24.8202C99.9143 25.5694 101.027 25.8314 102.447 25.8375H102.447C103.245 25.8406 104.044 25.8397 104.905 25.8386C105.021 25.8385 105.139 25.8383 105.258 25.8382C105.238 25.8592 105.218 25.88 105.197 25.9007L105.197 25.9009C104.536 26.5625 103.876 27.2244 103.216 27.8862C100.377 30.732 97.5401 33.5764 94.6697 36.3866C94.3647 36.684 93.8109 36.9171 93.3784 36.932C91.7598 36.9871 90.1415 36.9785 88.4691 36.9696C87.997 36.9671 87.5205 36.9645 87.0385 36.9634C87.0383 36.5884 87.038 36.2159 87.0378 35.8456C87.0362 33.8618 87.0346 31.9394 87.0553 30.0149L87.0553 30.0146C87.0553 30.0146 87.0554 30.0113 87.0566 30.0046C87.0578 29.9973 87.0601 29.9872 87.0642 29.9741C87.0725 29.9473 87.0865 29.9138 87.1071 29.8755C87.1494 29.797 87.2081 29.7201 87.2646 29.6636L87.2657 29.6625C90.4843 26.4241 93.7096 23.196 97.0927 19.8097Z" fill="#737373" stroke="#737373"/>
<path d="M65.787 40.4788L65.7871 40.4793C65.818 42.4621 64.1881 44.0776 62.0542 44.1073L62.0541 44.1073C59.5028 44.1422 57.091 44.6741 54.7827 45.733L54.7824 45.7331C47.7477 48.9543 43.6282 56.4435 44.6412 64.2026L44.6412 64.2027C45.6178 71.6927 51.5008 77.8318 59.0081 79.1855C69.8017 81.129 79.5233 73.2127 79.8743 62.1745L79.8743 62.1743C79.9189 60.7858 80.4854 59.6238 81.3887 58.9218C82.2993 58.2142 83.5085 58.0106 84.7329 58.4708L84.733 58.4708C86.2004 59.0228 87.0152 60.3492 87.0339 62.0201M65.787 40.4788L86.5339 62.0256M65.787 40.4788C65.7534 38.4493 64.1023 36.9582 61.9694 36.9767C60.9922 36.9841 60.0209 37.0749 59.0708 37.1879C45.726 38.7625 35.8947 51.2046 37.4819 64.5056C38.9864 77.12 49.3698 86.4731 62.0017 86.8637M65.787 40.4788L62.0017 86.8637M87.0339 62.0201L86.5339 62.0256M87.0339 62.0201C87.0339 62.02 87.0339 62.0199 87.0339 62.0198L86.5339 62.0256M87.0339 62.0201C87.1582 72.5996 79.682 82.6089 69.3277 85.5562M86.5339 62.0256C86.6557 72.3771 79.3307 82.189 69.1908 85.0753M69.3277 85.5562L69.1908 85.0753M69.3277 85.5562C67.7435 86.0074 66.081 86.2635 64.4556 86.5139C63.7281 86.626 63.0079 86.7369 62.3055 86.8637L62.0482 86.9101L62.0017 86.8637M69.3277 85.5562C69.3277 85.5562 69.3277 85.5562 69.3276 85.5562L69.1908 85.0753M69.1908 85.0753L62.0017 86.8637" fill="#737373" stroke="#737373"/>
</svg>
