<svg width="90" height="90" viewBox="0 0 90 91" fill="none" xmlns="http://www.w3.org/2000/svg">
<path d="M41.6383 0.00195312C43.8047 0.00195312 45.9711 0.00195312 48.1398 0.00195312C48.4238 0.0606409 48.7055 0.135761 48.9918 0.173321C50.4682 0.370512 51.9633 0.471455 53.4186 0.762547C64.4877 2.99033 73.618 8.47882 80.5069 17.4322C88.9425 28.3951 91.7309 40.804 88.973 54.321C86.7878 65.0374 81.2134 73.8218 72.5548 80.5005C61.8776 88.7379 49.7758 91.5854 36.5379 89.1745C26.8302 87.4068 18.6175 82.7329 11.9235 75.4838C5.72937 68.777 1.91057 60.8941 0.516371 51.8538C0.335641 50.68 0.171341 49.5016 0 48.3255C0 46.1 0 43.8746 0 41.6492C0.13144 40.6726 0.251144 39.6937 0.396667 38.7171C1.66882 30.1229 5.03931 22.4582 10.7053 15.8594C17.7209 7.68536 26.5321 2.58422 37.1576 0.687426C38.6457 0.422158 40.1455 0.229662 41.6383 0.00195312ZM44.9407 74.2185C45.213 73.9345 45.4195 73.7373 45.6049 73.519C47.9896 70.7043 50.433 67.9389 52.7379 65.0632C57.1129 59.6006 61.2181 53.9431 64.3539 47.6517C66.3771 43.5929 67.6986 39.4401 67.0061 34.7522C65.2458 22.8315 54.125 14.3077 42.1382 15.9721C33.8669 17.1224 27.9849 21.6296 24.5628 29.2191C22.7954 33.1394 22.1429 37.2804 23.2226 41.5365C24.0394 44.7596 25.5158 47.7175 27.1588 50.5908C30.9071 57.1451 35.4888 63.1007 40.3192 68.8756C41.8166 70.6667 43.3728 72.4062 44.9407 74.2162V74.2185Z" fill="#8EA7BD"/>
<path d="M44.9408 74.2176C43.3706 72.4076 41.8167 70.6658 40.3193 68.877C35.4912 63.1021 30.9072 57.1441 27.1589 50.5922C25.5159 47.7188 24.0395 44.761 23.2227 41.5379C22.143 37.2818 22.7932 33.1408 24.5629 29.2205C27.9874 21.631 33.867 17.1214 42.1383 15.9735C54.1252 14.3091 65.2459 22.8305 67.0063 34.7535C67.6987 39.4392 66.3772 43.5943 64.354 47.6531C61.2182 53.9468 57.1131 59.602 52.738 65.0646C50.4331 67.9427 47.9897 70.708 45.605 73.5203C45.422 73.7387 45.2131 73.9359 44.9408 74.2199V74.2176ZM44.983 29.1618C40.3005 29.1571 36.5592 32.8638 36.5357 37.5307C36.5146 42.2632 40.2277 46.031 44.9267 46.0451C49.6585 46.0592 53.4093 42.3407 53.4163 37.6292C53.4234 32.899 49.7055 29.1665 44.983 29.1594V29.1618Z" fill="white"/>
<path d="M44.9828 29.1641C49.7053 29.1688 53.4232 32.9036 53.4161 37.6339C53.4091 42.3453 49.6583 46.0638 44.9265 46.0497C40.2275 46.0356 36.5144 42.2655 36.5355 37.5353C36.5566 32.8684 40.298 29.1617 44.9828 29.1664V29.1641Z" fill="#8EA7BD"/>
</svg>
