<svg width="122" height="122" viewBox="0 0 122 122" fill="none" xmlns="http://www.w3.org/2000/svg">
<g clip-path="url(#clip0_952_6782)">
<path d="M59.3485 122C58.0151 121.528 56.6149 121.187 55.3643 120.555C52.2298 118.973 50.2314 116.39 49.2385 113.021C49.194 112.872 49.1622 112.715 49.1431 112.559C49.1335 112.486 49.1749 112.406 49.2003 112.281H72.962C72.2078 115.608 70.5212 118.243 67.6827 119.946C66.1552 120.865 64.3573 121.33 62.6834 122H59.3485Z" fill="#737373"/>
<path d="M122 67.7906C121.449 69.3789 120.893 70.9673 120.345 72.5589C120.205 72.9672 120.081 73.3818 119.906 73.9432C116.562 72.9002 113.262 71.8732 109.838 70.8047C110.557 68.4954 111.254 66.2532 111.995 63.8706C115.4 64.9614 118.7 66.0172 122 67.0729V67.7906Z" fill="#737373"/>
<path d="M122 35.7899C118.716 36.7914 115.432 37.7897 112.011 38.8327C111.308 36.5936 110.608 34.3769 109.85 31.9656C113.195 30.9162 116.523 29.8701 119.884 28.8143C120.613 30.9737 121.306 33.0245 122 35.0754V35.7931V35.7899Z" fill="#737373"/>
<path d="M60.9809 84.6792C53.6777 84.6792 46.3745 84.6696 39.0713 84.6919C38.2948 84.6919 37.8016 84.4495 37.2542 83.8658C35.1922 81.665 32.9073 79.6652 30.9375 77.3879C25.7092 71.3501 22.6606 64.3044 21.6964 56.3528C19.1538 35.3593 33.2542 17.4277 51.657 12.9942C73.8848 7.63895 95.0402 21.7399 99.5749 42.6952C102.865 57.8934 98.4866 70.8589 87.1451 81.4609C86.566 82.0031 85.8754 82.4816 85.4554 83.1322C84.593 84.4718 83.4474 84.727 81.9358 84.7111C74.9508 84.6313 67.9659 84.676 60.9777 84.676L60.9809 84.6792ZM60.3826 68.3997C63.8576 68.3934 66.6452 67.8511 69.2897 66.6997C77.468 63.1402 83.2278 56.9238 87.8929 49.5336C88.0521 49.2816 88.0361 48.7522 87.877 48.4938C84.0234 42.2551 79.215 36.9285 72.8729 33.1457C65.872 28.9674 58.607 28.3805 51.2274 32.0421C43.8192 35.7165 38.4539 41.5948 34.1484 48.5289C33.9734 48.8096 34.0911 49.4283 34.2884 49.76C37.0442 54.3753 40.5415 58.3718 44.6816 61.7751C49.4167 65.6663 54.6801 68.3264 60.3826 68.3965V68.3997Z" fill="#737373"/>
<path d="M42.349 105.022C42.1867 100.563 42.0276 96.2157 41.8653 91.811H80.192C80.0169 96.2221 79.8483 100.569 79.6733 105.022H42.349Z" fill="#737373"/>
<path d="M20.519 102.767C18.9183 101.156 17.2763 99.5074 15.7075 97.9317C18.0718 95.5523 20.4999 93.1059 22.8356 90.7552C24.3949 92.3309 26.056 94.0054 27.6376 95.6002C25.3591 97.8966 22.9343 100.337 20.519 102.77V102.767Z" fill="#737373"/>
<path d="M94.3719 95.4885C95.8644 93.9926 97.5128 92.3436 99.0657 90.7871C101.389 93.1123 103.845 95.5714 106.226 97.9572C104.714 99.469 103.072 101.115 101.538 102.649C99.2026 100.314 96.7491 97.8647 94.3719 95.4885Z" fill="#737373"/>
<path d="M10.1068 38.8231C6.72723 37.7674 3.43045 36.7404 0.0159302 35.675C0.73193 33.369 1.42884 31.1299 2.16393 28.7697C5.50208 29.8095 8.73203 30.8174 12.2229 31.905C11.5324 34.1696 10.8418 36.4246 10.1099 38.8231H10.1068Z" fill="#737373"/>
<path d="M2.15118 74.0516C1.41609 71.6977 0.735093 69.5097 0 67.1526C3.32224 66.1065 6.61584 65.0667 10.0654 63.9822C10.7814 66.2564 11.4878 68.4986 12.2356 70.8876C8.87203 71.9433 5.57525 72.9799 2.15118 74.0548V74.0516Z" fill="#737373"/>
<path d="M27.7267 7.15413C26.1133 8.77442 24.4713 10.4234 22.9056 11.9959C20.5476 9.63878 18.1132 7.20516 15.7615 4.85447C17.3208 3.28521 18.9851 1.6107 20.589 -0.00320435C22.9311 2.3443 25.3559 4.77473 27.7267 7.15094V7.15413Z" fill="#737373"/>
<path d="M94.3337 7.11907C96.644 4.80665 99.0753 2.37303 101.436 0.00958252C103.015 1.59479 104.686 3.27248 106.308 4.89596C103.973 7.23071 101.541 9.66433 99.2057 11.9959C97.6019 10.3884 95.9408 8.7266 94.3337 7.11907Z" fill="#737373"/>
<path d="M79.7083 49.036C75.8355 53.9926 71.5905 58.3877 65.5474 60.5247C60.6118 62.2726 56.1058 60.9808 51.883 58.2634C48.2998 55.9573 45.3658 52.9528 42.7914 49.5846C42.6163 49.355 42.5559 48.7968 42.7086 48.599C46.0754 44.2517 49.8973 40.4274 54.9952 38.1214C59.1098 36.2587 63.2276 36.3257 67.2945 38.2235C72.4306 40.622 76.2492 44.5579 79.7115 49.036H79.7083ZM64.5291 52.5062V45.569H57.5219V52.5062H64.5291Z" fill="#737373"/>
</g>
<defs>
<clipPath id="clip0_952_6782">
<rect width="122" height="122" fill="white"/>
</clipPath>
</defs>
</svg>
